<svg width="26" height="25" viewBox="0 0 26 25" fill="none" xmlns="http://www.w3.org/2000/svg">
<g clip-path="url(#clip0_90_9500)">
<path d="M14.9841 9.15424L18.8016 5.33625L19.5606 3.04871L23.6324 0.506194L25.1602 2.03421L22.6176 6.1055L20.3299 6.86527L16.5124 10.6825L14.9841 9.15424ZM5.17831 22.88C4.99467 23.0639 4.69554 23.0639 4.5114 22.88C4.32625 22.6956 4.32675 22.3963 4.5114 22.2124L10.7872 15.9368L9.73 14.8797L3.45424 21.1552C3.2696 21.3393 2.97097 21.3393 2.78633 21.1552C2.60218 20.9706 2.60268 20.6719 2.78633 20.488L9.06209 14.2123L8.1998 13.35L2.0356 19.5142C0.929245 20.6201 0.929245 22.4136 2.0356 23.5194L2.14666 23.6308C3.25251 24.7369 5.0463 24.7369 6.15266 23.6308L12.3169 17.4668L11.4546 16.6043L5.17831 22.88ZM21.0659 20.726C20.5953 21.1969 20.5948 21.961 21.0654 22.4314C21.5365 22.9025 22.3009 22.9025 22.772 22.4314C23.2426 21.9605 23.2416 21.1971 22.771 20.726C22.3 20.2551 21.537 20.2551 21.0659 20.726ZM24.0504 23.7109C22.8924 24.8686 20.8662 24.7369 19.5464 23.4179L7.91869 11.7898C6.04259 12.2436 3.98235 11.7443 2.51744 10.2791C1.05153 8.81345 0.546305 6.75028 1.00183 4.8725L3.25258 7.12374C3.95947 7.83038 5.10479 7.83013 5.81118 7.12374L7.46367 5.47151C8.16956 4.76487 8.17006 3.61954 7.46367 2.91315L5.21242 0.662089C7.08996 0.206315 9.15313 0.711789 10.619 2.1777C12.0845 3.64236 12.5833 5.70235 12.1298 7.57895L23.7571 19.2068C25.0763 20.526 25.2089 22.5526 24.0504 23.7109Z" fill="white"/>
</g>
<defs>
<clipPath id="clip0_90_9500">
<rect width="24.3203" height="24" fill="white" transform="translate(0.839844 0.5)"/>
</clipPath>
</defs>
</svg>
